<svg width="34" height="35" viewBox="0 0 34 35" fill="none" xmlns="http://www.w3.org/2000/svg">
<path d="M17.1499 20.8676L32.0221 4.54356L33.9855 6.33238L17.2861 24.6618L8.1825 16.0077L10.0128 14.0825L17.1499 20.8676ZM32.9541 11.3652L30.8828 13.6459C31.1834 14.8005 31.3438 16.0111 31.3438 17.2585C31.3438 25.1676 24.9091 31.6023 17 31.6023C9.09091 31.6023 2.65625 25.1676 2.65625 17.2585C2.65625 9.34946 9.09091 2.91479 17 2.91479C20.664 2.91479 24.0108 4.29636 26.549 6.56506L28.3396 4.59337C25.218 1.7916 21.2269 0.258545 17 0.258545C12.4592 0.258545 8.19002 2.02687 4.97917 5.23772C1.76833 8.44856 0 12.7178 0 17.2585C0 21.7993 1.76833 26.0685 4.97917 29.2794C8.19002 32.4902 12.4592 34.2585 17 34.2585C21.5408 34.2585 25.81 32.4902 29.0208 29.2794C32.2317 26.0685 34 21.7993 34 17.2585C34 15.215 33.6407 13.227 32.9541 11.3652Z" fill="url(#paint0_linear_2_4176)"/>
<defs>
<linearGradient id="paint0_linear_2_4176" x1="0" y1="0.258545" x2="34" y2="34.2585" gradientUnits="userSpaceOnUse">
<stop stop-color="#9FEDFF"/>
<stop offset="0.46695" stop-color="#C499FF"/>
<stop offset="1" stop-color="#FEA1A6"/>
</linearGradient>
</defs>
</svg>
